<?xml version="1.0" encoding="UTF-8"?>
<svg width="700pt" height="700pt" version="1.1" viewBox="0 0 700 700" xmlns="http://www.w3.org/2000/svg">
 <path d="m513.33 513.33h-93.332c-12.887 0-23.332-10.449-23.332-23.332v-163.33h-93.332v163.33c0 12.887-10.449 23.332-23.332 23.332h-93.336c-12.887 0-23.332-10.449-23.332-23.332v-228.66h-23.336c-9.9141 0-18.742-6.2539-22.023-15.609-3.2695-9.3516-0.29687-19.754 7.4531-25.941l210-168c8.5234-6.8125 20.621-6.8125 29.145 0l210 168c7.7461 6.1875 10.723 16.59 7.4492 25.941-3.2812 9.3555-12.109 15.609-22.023 15.609h-23.332v228.66c0 12.887-10.449 23.332-23.336 23.332z"/>
</svg>
